<?xml version="1.0" encoding="utf-8"?>
<!-- Generator: Adobe Illustrator 16.0.0, SVG Export Plug-In . SVG Version: 6.00 Build 0)  -->
<!DOCTYPE svg PUBLIC "-//W3C//DTD SVG 1.1//EN" "http://www.w3.org/Graphics/SVG/1.1/DTD/svg11.dtd">
<svg version="1.1" id="Capa_1" xmlns="http://www.w3.org/2000/svg" xmlns:xlink="http://www.w3.org/1999/xlink" x="0px" y="0px"
	 width="250px" height="100px" viewBox="0 0 250 100" enable-background="new 0 0 250 100" xml:space="preserve">
<g>
	<g id="XMLID_1238_">
		<polygon id="XMLID_1246_" fill="#CBCACA" points="30.149,34.749 44.915,43.383 58.68,35.625 30.399,18.105 1.118,35.625 
			15.758,43.414 		"/>
		<polygon id="XMLID_1245_" fill="#FFFFFF" points="30.65,68.785 15.758,60.715 15.758,43.414 1.118,35.625 1.118,69.161 
			30.9,85.179 59.181,68.41 59.181,52.143 		"/>
		<polygon id="XMLID_1244_" fill="#FFFFFF" points="45.023,43.383 45.023,59.775 30.041,52.518 30.041,34.749 		"/>
		<polygon id="XMLID_1241_" fill="#F1F0F0" points="15.758,43.414 15.758,60.715 30.149,52.518 30.149,34.749 		"/>
	</g>
	<g id="XMLID_1237_">
		<path fill="#FFFFFF" d="M84.005,67.061c-0.228,1.157-0.596,2.231-1.104,3.221c-0.509,0.991-1.175,1.846-1.999,2.564
			c-0.824,0.719-1.819,1.279-2.984,1.683c-1.166,0.403-2.529,0.604-4.089,0.604c-1.402,0-2.73-0.223-3.983-0.67
			c-1.253-0.447-2.354-1.113-3.3-1.998c-0.947-0.885-1.696-1.986-2.248-3.301c-0.552-1.314-0.829-2.84-0.829-4.574
			c0-1.473,0.241-2.854,0.723-4.143c0.482-1.287,1.179-2.409,2.09-3.365c0.911-0.955,2.012-1.713,3.3-2.273
			c1.289-0.562,2.748-0.842,4.378-0.842c1.384,0,2.651,0.188,3.799,0.564c1.148,0.378,2.147,0.908,2.998,1.592
			c0.85,0.684,1.551,1.516,2.104,2.498c0.552,0.981,0.924,2.076,1.117,3.286l-4.627,0.526c-0.141-0.631-0.342-1.219-0.605-1.762
			c-0.263-0.543-0.596-1.013-0.999-1.407c-0.403-0.395-0.89-0.7-1.459-0.921c-0.57-0.219-1.223-0.328-1.959-0.328
			c-1.017,0-1.854,0.207-2.511,0.618c-0.658,0.412-1.179,0.933-1.564,1.564c-0.386,0.631-0.653,1.333-0.802,2.104
			c-0.149,0.771-0.224,1.517-0.224,2.235c0,2.068,0.456,3.668,1.368,4.799c0.911,1.13,2.138,1.695,3.681,1.695
			c1.35,0,2.441-0.372,3.273-1.117s1.424-1.811,1.775-3.195L84.005,67.061z"/>
		<path fill="#FFFFFF" d="M96.758,53.888c1.665,0,3.155,0.28,4.47,0.841c1.315,0.562,2.428,1.32,3.339,2.275s1.608,2.076,2.09,3.365
			s0.723,2.669,0.723,4.141c0,1.596-0.263,3.047-0.789,4.353s-1.258,2.423-2.196,3.353c-0.938,0.93-2.055,1.647-3.353,2.156
			c-1.297,0.508-2.726,0.762-4.286,0.762c-1.753,0-3.292-0.279-4.615-0.841c-1.324-0.562-2.432-1.319-3.326-2.274
			s-1.564-2.078-2.012-3.365c-0.447-1.289-0.67-2.67-0.67-4.143c0-1.472,0.246-2.852,0.736-4.141s1.196-2.41,2.117-3.365
			s2.038-1.714,3.353-2.275C93.655,54.168,95.128,53.888,96.758,53.888z M96.758,71.031c0.806,0,1.534-0.158,2.182-0.473
			c0.648-0.316,1.192-0.759,1.63-1.328c0.438-0.57,0.776-1.258,1.012-2.064c0.237-0.807,0.355-1.7,0.355-2.682
			c0-0.912-0.101-1.762-0.302-2.551c-0.202-0.789-0.513-1.48-0.934-2.077c-0.42-0.596-0.956-1.065-1.604-1.407
			s-1.429-0.512-2.34-0.512c-0.912,0-1.696,0.175-2.354,0.525s-1.196,0.819-1.617,1.406c-0.42,0.588-0.732,1.28-0.933,2.078
			c-0.202,0.797-0.303,1.643-0.303,2.537c0,0.894,0.105,1.74,0.316,2.537c0.21,0.798,0.526,1.494,0.946,2.09
			c0.421,0.597,0.96,1.065,1.617,1.407S95.864,71.031,96.758,71.031z"/>
		<path fill="#FFFFFF" d="M129.047,54.02v20.903h-6.112l-7.324-14.436v14.436h-5.338V54.02h6.337l7.1,13.988V54.02H129.047z"/>
		<path fill="#FFFFFF" d="M149.293,57.963h-6.652v16.96h-5.338v-16.96h-6.626V54.02h18.616V57.963z"/>
		<path fill="#FFFFFF" d="M170.564,74.923h-6.063l-4.435-6.758h-3.018v6.758h-5.495V54.02h10.108c1.137,0,2.174,0.184,3.111,0.552
			c0.936,0.368,1.736,0.868,2.402,1.499c0.664,0.631,1.177,1.376,1.535,2.234c0.359,0.859,0.539,1.788,0.539,2.787
			c0,1.42-0.381,2.695-1.142,3.826s-1.771,1.985-3.03,2.563L170.564,74.923z M157.049,64.484h4.076c0.42,0,0.802-0.105,1.144-0.316
			c0.342-0.21,0.636-0.477,0.881-0.801s0.435-0.688,0.565-1.092c0.131-0.402,0.197-0.797,0.197-1.184
			c0-0.385-0.079-0.775-0.236-1.17c-0.158-0.395-0.377-0.749-0.658-1.064c-0.28-0.316-0.6-0.574-0.959-0.775
			s-0.741-0.303-1.145-0.303h-3.865V64.484z"/>
		<path fill="#FFFFFF" d="M177.111,62.434h8.494v4.049h-8.494v4.443h9.939v3.997h-13.55h-1.728V54.02h15.277v3.97h-9.939V62.434z"/>
		<path fill="#FFFFFF" d="M208.586,74.923h-6.064l-4.434-6.758h-3.018v6.758h-5.496V54.02h10.108c1.138,0,2.175,0.184,3.111,0.552
			s1.737,0.868,2.402,1.499s1.177,1.376,1.536,2.234c0.359,0.859,0.538,1.788,0.538,2.787c0,1.42-0.38,2.695-1.142,3.826
			c-0.76,1.131-1.771,1.985-3.029,2.563L208.586,74.923z M195.07,64.484h4.076c0.42,0,0.801-0.105,1.143-0.316
			c0.342-0.21,0.636-0.477,0.881-0.801c0.246-0.324,0.435-0.688,0.566-1.092c0.131-0.402,0.197-0.797,0.197-1.184
			c0-0.385-0.08-0.775-0.237-1.17s-0.377-0.749-0.657-1.064c-0.281-0.316-0.601-0.574-0.96-0.775s-0.741-0.303-1.144-0.303h-3.865
			V64.484z"/>
		<path fill="#FFFFFF" d="M216.736,54.02h4.471l8.098,20.903h-5.442l-1.367-3.892l-7.126,0.026l-1.314,3.865h-5.443L216.736,54.02z
			 M216.158,67.744h5.495l-2.708-8.703L216.158,67.744z"/>
		<path fill="#FFFFFF" d="M239.191,75.133c-1.175,0-2.322-0.145-3.444-0.434s-2.135-0.705-3.037-1.249
			c-0.903-0.543-1.644-1.2-2.222-1.972s-0.912-1.631-1-2.577l4.943-0.604c0.07,0.525,0.264,0.969,0.579,1.328
			s0.696,0.648,1.144,0.867c0.447,0.22,0.942,0.381,1.486,0.486c0.543,0.105,1.078,0.158,1.604,0.158
			c1.209,0,2.146-0.219,2.813-0.658c0.666-0.438,0.999-0.945,0.999-1.524c0-0.509-0.188-0.925-0.565-1.249s-0.872-0.596-1.485-0.814
			c-0.613-0.22-1.311-0.412-2.09-0.579c-0.781-0.167-1.583-0.346-2.406-0.539c-0.824-0.192-1.627-0.421-2.406-0.684
			c-0.78-0.263-1.477-0.596-2.09-0.999c-0.614-0.403-1.109-0.902-1.486-1.499c-0.377-0.596-0.564-1.332-0.564-2.208
			c0-1.263,0.279-2.306,0.841-3.129c0.561-0.824,1.275-1.482,2.144-1.973c0.867-0.49,1.836-0.837,2.904-1.039
			c1.069-0.201,2.104-0.303,3.104-0.303c1.297,0,2.48,0.138,3.549,0.411c1.069,0.273,1.994,0.657,2.774,1.151
			c0.78,0.495,1.407,1.09,1.88,1.785c0.474,0.697,0.763,1.465,0.868,2.307l-4.996,0.604c-0.035-0.053-0.104-0.214-0.21-0.486
			s-0.303-0.557-0.592-0.854c-0.289-0.299-0.706-0.565-1.249-0.803c-0.544-0.236-1.271-0.354-2.183-0.354
			c-0.946,0-1.73,0.157-2.354,0.474c-0.622,0.314-0.934,0.752-0.934,1.312c0,0.508,0.188,0.919,0.566,1.234
			c0.376,0.315,0.871,0.586,1.484,0.813c0.614,0.229,1.311,0.43,2.091,0.604c0.78,0.176,1.582,0.363,2.406,0.564
			c0.823,0.202,1.626,0.438,2.405,0.71c0.78,0.271,1.477,0.616,2.091,1.036c0.613,0.42,1.108,0.941,1.485,1.563
			s0.565,1.379,0.565,2.271s-0.167,1.75-0.499,2.572c-0.334,0.822-0.873,1.549-1.617,2.18c-0.746,0.63-1.719,1.137-2.919,1.522
			C242.369,74.94,240.909,75.133,239.191,75.133z"/>
	</g>
	<g id="XMLID_1236_">
		<path fill="#FFFFFF" d="M60.173,49.505V38.761h1.309v10.744H60.173z"/>
		<path fill="#FFFFFF" d="M73.018,44.751c0.659,0.947,1.309,1.922,1.951,2.923h0.048c-0.07-1.044-0.104-2.109-0.104-3.196v-5.717
			h1.317v10.744h-1.309l-4.216-5.99c-0.728-1.044-1.378-2.018-1.951-2.923h-0.048c0.07,0.979,0.104,2.123,0.104,3.429v5.484h-1.309
			V38.761h1.301L73.018,44.751z"/>
		<path fill="#FFFFFF" d="M87.934,49.505h-0.602l-2.706-6.416c-0.375-0.883-0.75-1.844-1.125-2.883h-0.064
			c0.075,1.494,0.112,2.861,0.112,4.103v5.195h-1.309V38.761h1.887l2.529,6.079c0.289,0.696,0.607,1.534,0.956,2.513h0.04
			c0.386-1.087,0.704-1.924,0.956-2.513l2.53-6.079h1.887v10.744h-1.309V44.31c0-1.215,0.037-2.583,0.112-4.103h-0.064
			c-0.396,1.097-0.771,2.058-1.124,2.883L87.934,49.505z"/>
		<path fill="#FFFFFF" d="M108.647,44.141c0,0.813-0.117,1.561-0.351,2.24c-0.234,0.68-0.568,1.266-1.004,1.758
			c-0.436,0.493-0.96,0.877-1.573,1.152c-0.613,0.276-1.3,0.414-2.059,0.414c-0.786,0-1.49-0.138-2.111-0.414
			c-0.621-0.275-1.147-0.66-1.577-1.152c-0.43-0.492-0.759-1.079-0.988-1.758s-0.343-1.427-0.343-2.24
			c0-0.819,0.118-1.57,0.354-2.252s0.571-1.27,1.004-1.763c0.433-0.492,0.957-0.876,1.573-1.152
			c0.616-0.276,1.306-0.414,2.071-0.414c0.78,0,1.48,0.138,2.099,0.414c0.619,0.275,1.143,0.66,1.573,1.152
			c0.43,0.493,0.76,1.08,0.988,1.763C108.533,42.571,108.647,43.322,108.647,44.141z M107.346,44.141
			c0-0.723-0.095-1.36-0.284-1.911s-0.451-1.012-0.784-1.381c-0.333-0.369-0.725-0.649-1.177-0.839
			c-0.452-0.19-0.938-0.285-1.457-0.285c-0.52,0-1.005,0.095-1.458,0.285c-0.452,0.19-0.844,0.47-1.177,0.839
			c-0.333,0.37-0.594,0.83-0.784,1.381s-0.284,1.188-0.284,1.911s0.096,1.358,0.289,1.907c0.192,0.549,0.455,1.008,0.787,1.377
			c0.333,0.369,0.725,0.647,1.177,0.835c0.452,0.188,0.94,0.281,1.465,0.281c0.52,0,1.002-0.094,1.449-0.281
			c0.447-0.188,0.836-0.466,1.169-0.835c0.333-0.37,0.594-0.829,0.784-1.377C107.251,45.5,107.346,44.864,107.346,44.141z"/>
		<path fill="#FFFFFF" d="M119.564,43.948c0.332,0.048,0.63,0.137,0.895,0.265c0.265,0.128,0.493,0.293,0.683,0.494
			s0.336,0.439,0.438,0.715c0.102,0.276,0.153,0.59,0.153,0.943c0,0.252-0.037,0.515-0.111,0.791s-0.197,0.543-0.369,0.803
			c-0.172,0.26-0.397,0.5-0.675,0.719c-0.278,0.22-0.624,0.399-1.037,0.538c-0.318,0.107-0.67,0.182-1.057,0.225
			c-0.387,0.043-0.85,0.064-1.39,0.064h-2.748V38.761h2.651c0.244,0,0.464,0.004,0.663,0.012c0.199,0.008,0.381,0.021,0.548,0.036
			c0.167,0.016,0.322,0.036,0.464,0.061c0.143,0.024,0.278,0.052,0.405,0.084c0.333,0.091,0.637,0.216,0.909,0.374
			c0.272,0.158,0.504,0.347,0.694,0.566c0.19,0.219,0.337,0.468,0.44,0.747c0.104,0.278,0.155,0.581,0.155,0.907
			c0,0.262-0.031,0.514-0.093,0.755s-0.16,0.463-0.297,0.667s-0.313,0.385-0.53,0.546s-0.481,0.294-0.791,0.401V43.948z
			 M117.645,43.41c0.257,0,0.479-0.012,0.667-0.036c0.188-0.024,0.356-0.06,0.506-0.108c0.402-0.134,0.695-0.342,0.879-0.626
			s0.277-0.619,0.277-1.004c0-0.396-0.096-0.72-0.289-0.972c-0.192-0.251-0.495-0.439-0.907-0.562
			c-0.204-0.059-0.439-0.1-0.707-0.125c-0.268-0.024-0.583-0.036-0.947-0.036h-1.47v3.469H117.645z M115.654,44.591v3.734h1.582
			c0.375,0,0.723-0.018,1.044-0.052c0.321-0.035,0.594-0.09,0.819-0.165c0.246-0.081,0.455-0.184,0.626-0.31
			c0.171-0.125,0.309-0.265,0.414-0.417c0.104-0.152,0.179-0.314,0.225-0.486c0.045-0.171,0.068-0.345,0.068-0.521
			c0-0.204-0.024-0.395-0.072-0.574c-0.048-0.179-0.127-0.34-0.237-0.482c-0.11-0.142-0.254-0.266-0.434-0.374
			c-0.18-0.107-0.403-0.19-0.67-0.249c-0.161-0.038-0.344-0.064-0.55-0.081s-0.462-0.024-0.767-0.024H115.654z"/>
		<path fill="#FFFFFF" d="M127.391,49.505V38.761h1.309v10.744H127.391z"/>
		<path fill="#FFFFFF" d="M136.026,38.761v9.563h5.243v1.18h-6.552V38.761H136.026z"/>
		<path fill="#FFFFFF" d="M146.566,49.505V38.761h1.309v10.744H146.566z"/>
		<path fill="#FFFFFF" d="M152.811,49.505l4.376-10.744h1.132l4.377,10.744h-1.422l-1.283-3.236h-4.492l-1.283,3.236H152.811z
			 M157.74,40.431c-0.479,1.337-0.937,2.553-1.373,3.646l-0.401,1.012h3.562l-0.408-1.011c-0.44-1.113-0.89-2.328-1.347-3.646
			H157.74z"/>
		<path fill="#FFFFFF" d="M168.938,45.057v4.448h-1.309V38.761h2.783c0.47,0,0.87,0.018,1.198,0.052
			c0.33,0.035,0.631,0.089,0.902,0.165c0.749,0.204,1.321,0.55,1.717,1.04c0.396,0.49,0.594,1.102,0.594,1.835
			c0,0.434-0.069,0.822-0.209,1.165c-0.139,0.342-0.334,0.64-0.586,0.891s-0.553,0.458-0.903,0.618s-0.74,0.278-1.169,0.354v0.032
			l3.181,4.593h-1.31l-3.308-4.448H168.938z M168.938,39.941v3.935h1.293c0.401,0,0.743-0.013,1.028-0.04
			c0.283-0.027,0.537-0.075,0.762-0.145c0.455-0.139,0.807-0.361,1.053-0.667s0.369-0.704,0.369-1.196
			c-0.006-0.46-0.123-0.831-0.354-1.112c-0.23-0.281-0.549-0.483-0.955-0.606c-0.193-0.059-0.424-0.102-0.691-0.129
			c-0.268-0.026-0.607-0.04-1.02-0.04H168.938z"/>
		<path fill="#FFFFFF" d="M180.65,49.505V38.761h1.309v10.744H180.65z"/>
		<path fill="#FFFFFF" d="M186.895,49.505l4.377-10.744h1.132l4.376,10.744h-1.422l-1.282-3.236h-4.492l-1.283,3.236H186.895z
			 M191.825,40.431c-0.479,1.337-0.937,2.553-1.374,3.646l-0.4,1.012h3.561l-0.407-1.011c-0.44-1.113-0.89-2.328-1.347-3.646
			H191.825z"/>
	</g>
</g>
</svg>
