<?xml version="1.0" encoding="utf-8"?>
<!-- Generator: Adobe Illustrator 16.0.0, SVG Export Plug-In . SVG Version: 6.00 Build 0)  -->
<!DOCTYPE svg PUBLIC "-//W3C//DTD SVG 1.1//EN" "http://www.w3.org/Graphics/SVG/1.1/DTD/svg11.dtd">
<svg version="1.1" id="Capa_1" xmlns="http://www.w3.org/2000/svg" xmlns:xlink="http://www.w3.org/1999/xlink" x="0px" y="0px"
	 width="250px" height="100px" viewBox="0 0 250 100" enable-background="new 0 0 250 100" xml:space="preserve">
<g id="XMLID_2212_">
	<polygon id="XMLID_2216_" fill="#79155F" points="29.979,30.612 44.745,39.247 58.51,31.489 30.229,13.969 0.947,31.489 
		15.588,39.278 	"/>
	<polygon id="XMLID_2215_" fill="#692152" points="30.479,64.648 15.588,56.578 15.588,39.278 0.947,31.489 0.947,65.025 
		30.729,81.041 59.01,64.273 59.01,48.006 	"/>
	<polygon id="XMLID_2214_" fill="#BF254F" points="44.853,39.247 44.853,55.639 29.87,48.382 29.87,30.612 	"/>
	<polygon id="XMLID_2213_" fill="#D1982D" points="15.588,39.278 15.588,56.578 29.979,48.382 29.979,30.612 	"/>
</g>
<g id="XMLID_2211_">
	<path fill="#FFFFFF" d="M83.835,62.926c-0.228,1.156-0.596,2.23-1.104,3.221c-0.509,0.99-1.175,1.845-1.999,2.563
		c-0.824,0.719-1.819,1.28-2.984,1.683c-1.166,0.403-2.529,0.605-4.089,0.605c-1.402,0-2.73-0.225-3.983-0.671
		c-1.253-0.447-2.354-1.113-3.3-1.999c-0.947-0.885-1.696-1.984-2.248-3.299c-0.552-1.315-0.829-2.84-0.829-4.576
		c0-1.473,0.241-2.853,0.723-4.141c0.482-1.289,1.179-2.41,2.09-3.365c0.911-0.956,2.012-1.714,3.3-2.275
		c1.289-0.561,2.748-0.842,4.378-0.842c1.384,0,2.651,0.189,3.799,0.565c1.148,0.377,2.147,0.907,2.998,1.59
		c0.85,0.684,1.551,1.518,2.104,2.498c0.552,0.982,0.924,2.078,1.117,3.287l-4.627,0.525c-0.141-0.631-0.342-1.218-0.605-1.762
		c-0.263-0.543-0.596-1.012-0.999-1.406c-0.403-0.395-0.89-0.701-1.459-0.92c-0.57-0.219-1.223-0.329-1.959-0.329
		c-1.017,0-1.854,0.206-2.511,0.618c-0.658,0.412-1.179,0.934-1.564,1.564c-0.386,0.631-0.653,1.332-0.802,2.104
		s-0.224,1.517-0.224,2.234c0,2.069,0.456,3.668,1.368,4.799c0.911,1.131,2.138,1.696,3.681,1.696c1.35,0,2.441-0.372,3.273-1.117
		s1.424-1.81,1.775-3.194L83.835,62.926z"/>
	<path fill="#FFFFFF" d="M96.588,49.752c1.665,0,3.155,0.28,4.47,0.841c1.315,0.561,2.428,1.319,3.339,2.274
		c0.912,0.956,1.608,2.078,2.09,3.366s0.723,2.669,0.723,4.142c0,1.595-0.263,3.046-0.789,4.352s-1.258,2.424-2.196,3.352
		c-0.938,0.93-2.055,1.648-3.353,2.156c-1.297,0.51-2.726,0.764-4.286,0.764c-1.753,0-3.292-0.281-4.615-0.842
		c-1.324-0.561-2.432-1.318-3.326-2.274s-1.564-2.077-2.012-3.366c-0.447-1.288-0.67-2.668-0.67-4.141s0.246-2.854,0.736-4.142
		s1.196-2.41,2.117-3.366c0.92-0.955,2.038-1.713,3.353-2.274C93.485,50.032,94.958,49.752,96.588,49.752z M96.588,66.896
		c0.806,0,1.534-0.157,2.182-0.474c0.648-0.314,1.192-0.758,1.63-1.328c0.438-0.568,0.776-1.257,1.012-2.063
		c0.237-0.806,0.355-1.7,0.355-2.683c0-0.91-0.101-1.762-0.302-2.55c-0.202-0.789-0.513-1.481-0.934-2.077
		c-0.42-0.596-0.956-1.064-1.604-1.406s-1.429-0.514-2.34-0.514c-0.912,0-1.696,0.176-2.354,0.526s-1.196,0.819-1.617,1.407
		c-0.42,0.587-0.732,1.279-0.933,2.076c-0.202,0.799-0.303,1.645-0.303,2.537c0,0.895,0.105,1.74,0.316,2.538
		c0.21,0.798,0.526,1.495,0.946,2.091c0.421,0.596,0.96,1.064,1.617,1.406S95.694,66.896,96.588,66.896z"/>
	<path fill="#FFFFFF" d="M128.877,49.883v20.904h-6.112l-7.324-14.436v14.436h-5.338V49.883h6.337l7.1,13.988V49.883H128.877z"/>
	<path fill="#FFFFFF" d="M149.123,53.828h-6.652v16.959h-5.338V53.828h-6.627v-3.945h18.617V53.828z"/>
	<path fill="#FFFFFF" d="M170.395,70.787h-6.064l-4.434-6.758h-3.018v6.758h-5.496V49.883h10.108c1.138,0,2.175,0.184,3.111,0.552
		s1.737,0.867,2.402,1.498c0.665,0.632,1.177,1.377,1.536,2.236c0.359,0.858,0.538,1.787,0.538,2.787c0,1.42-0.38,2.694-1.142,3.825
		c-0.76,1.131-1.771,1.985-3.029,2.563L170.395,70.787z M156.879,60.348h4.076c0.42,0,0.801-0.104,1.143-0.314
		c0.342-0.211,0.636-0.478,0.881-0.803c0.246-0.324,0.435-0.688,0.566-1.091c0.131-0.403,0.197-0.798,0.197-1.183
		c0-0.386-0.08-0.776-0.237-1.171c-0.157-0.394-0.377-0.749-0.657-1.065c-0.281-0.314-0.601-0.573-0.96-0.775
		c-0.359-0.201-0.741-0.302-1.144-0.302h-3.865V60.348z"/>
	<path fill="#FFFFFF" d="M176.941,58.297h8.493v4.05h-8.493v4.444h9.939v3.996H173.33h-1.727V49.883h15.277v3.97h-9.939V58.297z"/>
	<path fill="#FFFFFF" d="M208.415,70.787h-6.063l-4.435-6.758H194.9v6.758h-5.496V49.883h10.107c1.139,0,2.176,0.184,3.111,0.552
		c0.938,0.368,1.738,0.867,2.402,1.498c0.666,0.632,1.178,1.377,1.537,2.236c0.358,0.858,0.537,1.787,0.537,2.787
		c0,1.42-0.38,2.694-1.141,3.825s-1.771,1.985-3.03,2.563L208.415,70.787z M194.9,60.348h4.075c0.421,0,0.802-0.104,1.144-0.314
		c0.342-0.211,0.635-0.478,0.881-0.803c0.246-0.324,0.434-0.688,0.565-1.091s0.197-0.798,0.197-1.183
		c0-0.386-0.079-0.776-0.237-1.171c-0.157-0.394-0.377-0.749-0.656-1.065c-0.281-0.314-0.602-0.573-0.961-0.775
		c-0.359-0.201-0.74-0.302-1.143-0.302H194.9V60.348z"/>
	<path fill="#FFFFFF" d="M216.566,49.883h4.47l8.099,20.904h-5.443l-1.367-3.892l-7.125,0.026l-1.314,3.865h-5.443L216.566,49.883z
		 M215.988,63.609h5.494l-2.707-8.704L215.988,63.609z"/>
	<path fill="#FFFFFF" d="M239.021,70.998c-1.176,0-2.323-0.145-3.445-0.435c-1.121-0.289-2.135-0.705-3.037-1.249
		c-0.902-0.543-1.643-1.2-2.221-1.972c-0.579-0.771-0.912-1.63-1-2.577l4.943-0.604c0.07,0.526,0.264,0.969,0.578,1.327
		c0.316,0.359,0.697,0.649,1.145,0.868c0.447,0.22,0.941,0.382,1.485,0.486c0.543,0.105,1.078,0.158,1.604,0.158
		c1.209,0,2.146-0.22,2.813-0.657c0.666-0.438,1-0.947,1-1.525c0-0.508-0.189-0.924-0.566-1.249
		c-0.377-0.324-0.871-0.596-1.484-0.815c-0.614-0.219-1.311-0.411-2.091-0.578c-0.78-0.166-1.583-0.346-2.406-0.539
		c-0.824-0.193-1.626-0.421-2.405-0.684c-0.781-0.264-1.478-0.596-2.091-0.999c-0.614-0.403-1.108-0.903-1.485-1.499
		s-0.565-1.332-0.565-2.209c0-1.262,0.28-2.305,0.841-3.129c0.561-0.823,1.275-1.48,2.144-1.972
		c0.868-0.491,1.836-0.837,2.905-1.039c1.068-0.202,2.104-0.303,3.103-0.303c1.298,0,2.48,0.137,3.55,0.411
		c1.068,0.273,1.994,0.658,2.773,1.152c0.78,0.494,1.407,1.089,1.881,1.785c0.473,0.695,0.762,1.464,0.867,2.305l-4.996,0.605
		c-0.035-0.053-0.104-0.215-0.21-0.486c-0.104-0.271-0.302-0.557-0.591-0.855c-0.29-0.297-0.707-0.564-1.25-0.801
		c-0.543-0.237-1.271-0.355-2.182-0.355c-0.947,0-1.731,0.158-2.354,0.473c-0.623,0.315-0.934,0.753-0.934,1.313
		c0,0.508,0.188,0.92,0.565,1.234c0.376,0.314,0.872,0.586,1.485,0.813s1.311,0.429,2.09,0.604c0.78,0.175,1.582,0.363,2.406,0.564
		s1.626,0.438,2.406,0.709c0.779,0.271,1.477,0.617,2.09,1.037s1.109,0.94,1.486,1.562c0.377,0.622,0.564,1.378,0.564,2.271
		s-0.166,1.751-0.499,2.574c-0.333,0.822-0.872,1.549-1.617,2.179s-1.718,1.138-2.919,1.522
		C242.198,70.805,240.738,70.998,239.021,70.998z"/>
</g>
<g id="XMLID_2210_">
	<path fill="#FFFFFF" d="M60.003,45.369V34.625h1.309v10.744H60.003z"/>
	<path fill="#FFFFFF" d="M72.847,40.616c0.659,0.947,1.309,1.922,1.951,2.923h0.048c-0.07-1.044-0.104-2.109-0.104-3.196v-5.717
		h1.317v10.744H74.75l-4.216-5.99c-0.728-1.044-1.378-2.018-1.951-2.923h-0.048c0.07,0.979,0.104,2.123,0.104,3.429v5.484h-1.309
		V34.625h1.301L72.847,40.616z"/>
	<path fill="#FFFFFF" d="M87.763,45.369h-0.602l-2.706-6.416c-0.375-0.883-0.75-1.844-1.125-2.883h-0.064
		c0.075,1.494,0.112,2.861,0.112,4.103v5.195H82.07V34.625h1.887l2.529,6.079c0.289,0.696,0.607,1.534,0.956,2.513h0.04
		c0.386-1.087,0.704-1.924,0.956-2.513l2.53-6.079h1.887v10.744h-1.309v-5.195c0-1.215,0.037-2.583,0.112-4.103h-0.064
		c-0.396,1.097-0.771,2.058-1.124,2.883L87.763,45.369z"/>
	<path fill="#FFFFFF" d="M108.477,40.005c0,0.813-0.117,1.561-0.351,2.24c-0.234,0.68-0.568,1.266-1.004,1.758
		c-0.436,0.493-0.96,0.877-1.573,1.152c-0.613,0.276-1.3,0.414-2.059,0.414c-0.786,0-1.49-0.138-2.111-0.414
		c-0.621-0.275-1.147-0.66-1.577-1.152c-0.43-0.492-0.759-1.079-0.988-1.758s-0.343-1.427-0.343-2.24
		c0-0.819,0.118-1.57,0.354-2.252s0.571-1.27,1.004-1.763c0.433-0.492,0.957-0.876,1.573-1.152c0.616-0.276,1.306-0.414,2.071-0.414
		c0.78,0,1.48,0.138,2.099,0.414c0.619,0.275,1.143,0.66,1.573,1.152c0.43,0.493,0.76,1.08,0.988,1.763
		C108.362,38.436,108.477,39.186,108.477,40.005z M107.176,40.005c0-0.723-0.095-1.36-0.284-1.911s-0.451-1.012-0.784-1.381
		c-0.333-0.369-0.725-0.649-1.177-0.839c-0.452-0.19-0.938-0.285-1.457-0.285c-0.52,0-1.005,0.095-1.458,0.285
		c-0.452,0.19-0.844,0.47-1.177,0.839c-0.333,0.37-0.594,0.83-0.784,1.381s-0.284,1.188-0.284,1.911s0.096,1.358,0.289,1.907
		c0.192,0.549,0.455,1.008,0.787,1.377c0.333,0.369,0.725,0.647,1.177,0.835c0.452,0.188,0.94,0.281,1.465,0.281
		c0.52,0,1.002-0.094,1.449-0.281c0.447-0.188,0.836-0.466,1.169-0.835c0.333-0.37,0.594-0.829,0.784-1.377
		C107.081,41.364,107.176,40.728,107.176,40.005z"/>
	<path fill="#FFFFFF" d="M119.394,39.813c0.332,0.048,0.63,0.137,0.895,0.265c0.265,0.128,0.493,0.293,0.683,0.494
		s0.336,0.439,0.438,0.715c0.102,0.276,0.153,0.59,0.153,0.943c0,0.252-0.037,0.515-0.111,0.791s-0.197,0.543-0.369,0.803
		c-0.172,0.26-0.397,0.5-0.675,0.719c-0.278,0.22-0.624,0.399-1.037,0.538c-0.318,0.107-0.67,0.182-1.057,0.225
		c-0.387,0.043-0.85,0.064-1.39,0.064h-2.748V34.625h2.651c0.244,0,0.464,0.004,0.663,0.012c0.199,0.008,0.381,0.021,0.548,0.036
		c0.167,0.016,0.322,0.036,0.464,0.061c0.143,0.024,0.278,0.052,0.405,0.084c0.333,0.091,0.637,0.216,0.909,0.374
		c0.272,0.158,0.504,0.347,0.694,0.566c0.19,0.219,0.337,0.468,0.44,0.747c0.104,0.278,0.155,0.581,0.155,0.907
		c0,0.262-0.031,0.514-0.093,0.755s-0.16,0.463-0.297,0.667s-0.313,0.385-0.53,0.546s-0.481,0.294-0.791,0.401V39.813z
		 M117.475,39.274c0.257,0,0.479-0.012,0.667-0.036c0.188-0.024,0.356-0.06,0.506-0.108c0.402-0.134,0.695-0.342,0.879-0.626
		s0.277-0.619,0.277-1.004c0-0.396-0.096-0.72-0.289-0.972c-0.192-0.251-0.495-0.439-0.907-0.562
		c-0.204-0.059-0.439-0.1-0.707-0.125c-0.268-0.024-0.583-0.036-0.947-0.036h-1.47v3.469H117.475z M115.483,40.455v3.734h1.582
		c0.375,0,0.723-0.018,1.044-0.052c0.321-0.035,0.594-0.09,0.819-0.165c0.246-0.081,0.455-0.184,0.626-0.31
		c0.171-0.125,0.309-0.265,0.414-0.417c0.104-0.152,0.179-0.314,0.225-0.486c0.045-0.171,0.068-0.345,0.068-0.521
		c0-0.204-0.024-0.395-0.072-0.574c-0.048-0.179-0.127-0.34-0.237-0.482c-0.11-0.142-0.254-0.266-0.434-0.374
		c-0.18-0.107-0.403-0.19-0.67-0.249c-0.161-0.038-0.344-0.064-0.55-0.081s-0.462-0.024-0.767-0.024H115.483z"/>
	<path fill="#FFFFFF" d="M127.22,45.369V34.625h1.309v10.744H127.22z"/>
	<path fill="#FFFFFF" d="M135.855,34.625v9.563h5.244v1.18h-6.553V34.625H135.855z"/>
	<path fill="#FFFFFF" d="M146.396,45.369V34.625h1.309v10.744H146.396z"/>
	<path fill="#FFFFFF" d="M152.641,45.369l4.375-10.744h1.133l4.376,10.744h-1.421l-1.283-3.236h-4.492l-1.283,3.236H152.641z
		 M157.57,36.295c-0.479,1.337-0.938,2.553-1.373,3.646l-0.402,1.012h3.562l-0.407-1.011c-0.441-1.113-0.891-2.328-1.348-3.646
		H157.57z"/>
	<path fill="#FFFFFF" d="M168.768,40.921v4.448h-1.309V34.625h2.783c0.471,0,0.871,0.018,1.199,0.052
		c0.329,0.035,0.63,0.089,0.902,0.165c0.748,0.204,1.32,0.55,1.717,1.04c0.396,0.49,0.594,1.102,0.594,1.835
		c0,0.434-0.07,0.822-0.209,1.165c-0.14,0.342-0.335,0.64-0.586,0.891c-0.252,0.251-0.553,0.458-0.904,0.618
		c-0.35,0.161-0.74,0.278-1.168,0.354v0.032l3.18,4.593h-1.309l-3.309-4.448H168.768z M168.768,35.806v3.935h1.293
		c0.402,0,0.744-0.013,1.028-0.04s0.538-0.075,0.763-0.145c0.455-0.139,0.806-0.361,1.052-0.667s0.37-0.704,0.37-1.196
		c-0.006-0.46-0.124-0.831-0.354-1.112c-0.23-0.281-0.549-0.483-0.956-0.606c-0.192-0.059-0.423-0.102-0.69-0.129
		c-0.268-0.026-0.607-0.04-1.02-0.04H168.768z"/>
	<path fill="#FFFFFF" d="M180.48,45.369V34.625h1.309v10.744H180.48z"/>
	<path fill="#FFFFFF" d="M186.725,45.369l4.376-10.744h1.132l4.377,10.744h-1.422l-1.283-3.236h-4.492l-1.283,3.236H186.725z
		 M191.654,36.295c-0.479,1.337-0.937,2.553-1.373,3.646l-0.401,1.012h3.562l-0.408-1.011c-0.44-1.113-0.89-2.328-1.347-3.646
		H191.654z"/>
</g>
</svg>
