<!--?xml version="1.0" encoding="utf-8"?-->
<!-- Generator: Adobe Illustrator 16.0.0, SVG Export Plug-In . SVG Version: 6.00 Build 0)  -->

<svg version="1.1" id="Capa_1" xmlns="http://www.w3.org/2000/svg" xmlns:xlink="http://www.w3.org/1999/xlink" x="0px" y="0px" width="80.5px" height="82px" viewBox="0 0 80.5 82" enable-background="new 0 0 80.5 82" xml:space="preserve" style="">
<g id="XMLID_2088_">
	<g id="XMLID_2092_">
		<g id="XMLID_2106_">
			<g id="XMLID_2109_">
				<path id="XMLID_2112_" fill="none" stroke="#333333" stroke-miterlimit="10" d="M72.118,48.443l-7.03-30.464
					c-0.134-0.577-0.646-0.985-1.238-0.985H53.328v-1.709c0-0.702-0.569-1.271-1.271-1.271H28.443c-0.701,0-1.271,0.569-1.271,1.271
					v1.709H16.652c-0.592,0-1.105,0.408-1.239,0.985l-7.03,30.464c-0.021,0.095-0.033,0.19-0.033,0.285v26.656
					c0,0.701,0.569,1.271,1.271,1.271H70.88c0.702,0,1.271-0.569,1.271-1.271V48.729C72.15,48.634,72.14,48.538,72.118,48.443z
					 M53.328,19.536h9.51l6.444,27.922h-8.458V29.854c0-0.702-0.568-1.271-1.271-1.271h-2.565v-6.015
					c0-0.701-0.57-1.271-1.271-1.271h-2.389V19.536L53.328,19.536z M30.204,40.384L30.204,40.384c0.339,0,0.661-0.134,0.899-0.372
					s0.373-0.563,0.373-0.899l-0.008-7.986h26.814v16.332H22.218v-7.081L30.204,40.384z M24.013,37.837l4.916-4.916l0.005,4.92
					L24.013,37.837z M29.715,16.556h21.07v4.743h-21.07V16.556z M54.445,23.841v4.742H30.197c-0.337,0-0.66,0.135-0.898,0.373
					l-3.244,3.243v-8.358H54.445z M17.662,19.536h9.511v1.763h-2.389c-0.702,0-1.271,0.569-1.271,1.271v12.172l-3.465,3.465
					c-0.238,0.238-0.373,0.562-0.373,0.898v8.354h-8.457L17.662,19.536z M69.609,74.113H10.892V50h58.717L69.609,74.113
					L69.609,74.113z" class="LwBpTDsf_0"></path>
			</g>
		</g>
		<g id="XMLID_2105_">
			<g id="XMLID_2108_">
				<path id="XMLID_2111_" fill="none" stroke="#333333" stroke-miterlimit="10" d="M52.642,42.793h-0.444
					c-0.702,0-1.271,0.569-1.271,1.271c0,0.702,0.569,1.271,1.271,1.271h0.444c0.702,0,1.271-0.569,1.271-1.271
					C53.912,43.362,53.344,42.793,52.642,42.793z" class="LwBpTDsf_1"></path>
			</g>
		</g>
		<g id="XMLID_2104_">
			<g id="XMLID_2107_">
				<path id="XMLID_2110_" fill="none" stroke="#333333" stroke-miterlimit="10" d="M47.876,42.793H27.859
					c-0.702,0-1.271,0.569-1.271,1.271c0,0.702,0.569,1.271,1.271,1.271h20.017c0.701,0,1.271-0.569,1.271-1.271
					C49.146,43.362,48.577,42.793,47.876,42.793z" class="LwBpTDsf_2"></path>
			</g>
		</g>
	</g>
</g>
<style>.LwBpTDsf_0{stroke-dasharray:807 809;stroke-dashoffset:808;animation:LwBpTDsf_draw 4000ms ease-in-out 0ms forwards;}.LwBpTDsf_1{stroke-dasharray:9 11;stroke-dashoffset:10;animation:LwBpTDsf_draw 4000ms ease-in-out 0ms forwards;}.LwBpTDsf_2{stroke-dasharray:49 51;stroke-dashoffset:50;animation:LwBpTDsf_draw 4000ms ease-in-out 0ms forwards;}@keyframes LwBpTDsf_draw{100%{stroke-dashoffset:0;}}@keyframes LwBpTDsf_fade{0%{stroke-opacity:1;}95.1219512195122%{stroke-opacity:1;}100%{stroke-opacity:0;}}</style></svg>
