<?xml version="1.0" encoding="utf-8"?>
<!-- Generator: Adobe Illustrator 16.0.0, SVG Export Plug-In . SVG Version: 6.00 Build 0)  -->
<!DOCTYPE svg PUBLIC "-//W3C//DTD SVG 1.1//EN" "http://www.w3.org/Graphics/SVG/1.1/DTD/svg11.dtd">
<svg version="1.1" id="Capa_1" xmlns="http://www.w3.org/2000/svg" xmlns:xlink="http://www.w3.org/1999/xlink" x="0px" y="0px"
	 width="80.5px" height="82px" viewBox="0 0 80.5 82" enable-background="new 0 0 80.5 82" xml:space="preserve">
<g id="XMLID_2088_">
	<g id="XMLID_2092_">
		<g id="XMLID_2106_">
			<g id="XMLID_2109_">
				<path id="XMLID_2112_" fill="#666565" d="M72.118,48.443l-7.03-30.464c-0.134-0.577-0.646-0.985-1.238-0.985H53.328v-1.709
					c0-0.702-0.569-1.271-1.271-1.271H28.443c-0.701,0-1.271,0.569-1.271,1.271v1.709h-10.52c-0.592,0-1.105,0.408-1.239,0.985
					l-7.03,30.464c-0.021,0.095-0.033,0.189-0.033,0.285v26.655c0,0.701,0.569,1.271,1.271,1.271H70.88
					c0.702,0,1.271-0.568,1.271-1.271V48.729C72.15,48.634,72.141,48.538,72.118,48.443z M53.328,19.536h9.51l6.444,27.922h-8.458
					V29.854c0-0.702-0.568-1.271-1.271-1.271h-2.564v-6.015c0-0.701-0.57-1.271-1.271-1.271h-2.389V19.536L53.328,19.536z
					 M30.204,40.384L30.204,40.384c0.339,0,0.661-0.134,0.899-0.372c0.238-0.238,0.373-0.563,0.373-0.899l-0.008-7.986h26.814
					v16.332H22.218v-7.081L30.204,40.384z M24.013,37.837l4.916-4.916l0.005,4.92L24.013,37.837z M29.715,16.556h21.07v4.743h-21.07
					V16.556z M54.445,23.841v4.742H30.197c-0.337,0-0.66,0.135-0.898,0.373l-3.244,3.243v-8.358H54.445z M17.662,19.536h9.511v1.763
					h-2.389c-0.702,0-1.271,0.569-1.271,1.271v12.172l-3.465,3.465c-0.238,0.238-0.373,0.562-0.373,0.898v8.354h-8.457
					L17.662,19.536z M69.609,74.113H10.892V50h58.717V74.113L69.609,74.113z"/>
			</g>
		</g>
		<g id="XMLID_2105_">
			<g id="XMLID_2108_">
				<path id="XMLID_2111_" fill="#666565" d="M52.643,42.793h-0.444c-0.702,0-1.271,0.568-1.271,1.271
					c0,0.701,0.569,1.271,1.271,1.271h0.444c0.701,0,1.271-0.569,1.271-1.271C53.912,43.361,53.344,42.793,52.643,42.793z"/>
			</g>
		</g>
		<g id="XMLID_2104_">
			<g id="XMLID_2107_">
				<path id="XMLID_2110_" fill="#666565" d="M47.876,42.793H27.859c-0.702,0-1.271,0.568-1.271,1.271
					c0,0.701,0.569,1.271,1.271,1.271h20.017c0.701,0,1.271-0.569,1.271-1.271C49.146,43.361,48.577,42.793,47.876,42.793z"/>
			</g>
		</g>
	</g>
</g>
</svg>
