<?xml version="1.0" encoding="utf-8"?>
<!-- Generator: Adobe Illustrator 16.0.0, SVG Export Plug-In . SVG Version: 6.00 Build 0)  -->
<!DOCTYPE svg PUBLIC "-//W3C//DTD SVG 1.1//EN" "http://www.w3.org/Graphics/SVG/1.1/DTD/svg11.dtd">
<svg version="1.1" id="Capa_1" xmlns="http://www.w3.org/2000/svg" xmlns:xlink="http://www.w3.org/1999/xlink" x="0px" y="0px"
	 width="80.5px" height="82px" viewBox="0 0 80.5 82" enable-background="new 0 0 80.5 82" xml:space="preserve">
<g>
	<g>
		<g>
			<path fill="#666565" d="M64.686,53.053c-0.006,0.004-0.014,0.006-0.02,0.01l-8.71,4.017c-0.672,0.31-0.966,1.104-0.655,1.776
				s1.105,0.967,1.777,0.655l8.699-4.011c1.283-0.563,2.787,0.023,3.354,1.307c0.568,1.287-0.018,2.797-1.304,3.364l-17.822,7.87
				c-2.821,1.246-6.026,1.174-8.789-0.199l-6.524-3.24c-3.479-1.729-7.511-1.82-11.063-0.252l-0.122,0.055l-4.871-11.031
				l6.763-2.984c3.224-1.425,6.82-1.539,10.127-0.324l13.121,4.817c1.192,0.438,1.83,1.772,1.418,2.978
				c-0.42,1.226-1.76,1.886-2.986,1.471l-10.145-3.432c-0.701-0.237-1.461,0.139-1.698,0.84c-0.237,0.699,0.139,1.461,0.839,1.697
				l10.146,3.433c0.531,0.18,1.073,0.266,1.606,0.266c2.095,0,4.059-1.319,4.772-3.407c0.879-2.568-0.479-5.422-3.029-6.358
				l-13.12-4.817c-3.962-1.455-8.271-1.316-12.133,0.389l-6.805,3.004c-0.89-1.358-2.662-1.918-4.196-1.24l-8.685,3.835
				c-0.484,0.214-0.797,0.692-0.799,1.222L3.766,78.24c-0.001,0.466,0.24,0.898,0.636,1.144c0.215,0.134,0.459,0.2,0.704,0.2
				c0.207,0,0.414-0.048,0.604-0.145l16.99-8.582c1.532-0.698,2.299-2.408,1.857-3.989l0.154-0.067
				c2.822-1.246,6.026-1.174,8.789,0.199l6.524,3.241c3.478,1.728,7.511,1.819,11.063,0.25l17.822-7.869
				c2.639-1.165,3.838-4.259,2.673-6.897C70.418,53.087,67.324,51.889,64.686,53.053z M21.582,68.422
				c-0.021,0.01-0.042,0.02-0.063,0.03l-15.068,7.61l0.017-5.828l3.917-1.922c0.664-0.326,0.938-1.131,0.612-1.793
				c-0.326-0.666-1.129-0.938-1.793-0.612l-2.727,1.339L6.51,55.634l7.889-3.483c0.356-0.155,0.772,0.006,0.929,0.36l6.269,14.198
				c0,0.001,0,0.002,0,0.002l0.346,0.782C22.099,67.85,21.938,68.266,21.582,68.422z"/>
		</g>
		<g>
			<path fill="#666565" d="M72.617,17.89L51.758,4.715c-0.275-0.175-0.629-0.175-0.904,0L29.993,17.89
				c-0.396,0.25-0.514,0.773-0.264,1.169l2.026,3.208c0.12,0.19,0.311,0.325,0.53,0.375c0.219,0.049,0.449,0.01,0.64-0.11
				l0.301-0.19v17.555c0,0.468,0.379,0.848,0.848,0.848h34.464c0.469,0,0.848-0.38,0.848-0.848V22.341l0.302,0.19
				c0.141,0.089,0.297,0.131,0.453,0.131c0.279,0,0.555-0.14,0.717-0.396l2.025-3.207c0.086-0.136,0.133-0.293,0.133-0.453
				C73.014,18.315,72.863,18.045,72.617,17.89z M67.689,39.047H52.152h-1.695H38.313v-3.479c0-0.469-0.379-0.848-0.848-0.848
				c-0.469,0-0.848,0.379-0.848,0.848v3.479h-1.696V21.27l16.384-10.348l12.991,8.206v4.066c0,0.469,0.381,0.848,0.849,0.848
				c0.469,0,0.849-0.379,0.849-0.848v-2.996l1.696,1.071V39.047z M69.875,20.645L51.758,9.202c-0.139-0.088-0.295-0.132-0.453-0.132
				c-0.156,0-0.313,0.044-0.453,0.132L32.736,20.645l-1.12-1.774L51.305,6.435L70.996,18.87L69.875,20.645z"/>
		</g>
	</g>
	<path fill="#666666" d="M37.465,32.264c-0.468,0-0.848,0.379-0.848,0.848v0.02c0,0.469,0.38,0.849,0.848,0.849
		c0.468,0,0.848-0.38,0.848-0.849v-0.02C38.313,32.643,37.934,32.264,37.465,32.264z"/>
	<path fill="#666666" d="M65.146,24.782c-0.47,0-0.85,0.38-0.85,0.849v0.02c0,0.469,0.38,0.848,0.85,0.848
		c0.468,0,0.848-0.379,0.848-0.848v-0.02C65.994,25.162,65.613,24.782,65.146,24.782z"/>
</g>
</svg>
