<!--?xml version="1.0" encoding="utf-8"?-->
<!-- Generator: Adobe Illustrator 16.0.0, SVG Export Plug-In . SVG Version: 6.00 Build 0)  -->

<svg version="1.1" id="Capa_1" xmlns="http://www.w3.org/2000/svg" xmlns:xlink="http://www.w3.org/1999/xlink" x="0px" y="0px" width="80.5px" height="82px" viewBox="0 0 80.5 82" enable-background="new 0 0 80.5 82" xml:space="preserve" style="">
<g>
	<g>
		<path fill="none" stroke="#333333" stroke-miterlimit="10" d="M64.686,53.053c-0.007,0.003-0.014,0.006-0.02,0.009l-8.71,4.017
			c-0.672,0.31-0.966,1.105-0.655,1.777c0.31,0.672,1.105,0.966,1.777,0.655l8.699-4.011c1.284-0.562,2.787,0.023,3.354,1.307
			c0.568,1.287-0.017,2.797-1.304,3.364l-17.822,7.87c-2.822,1.246-6.026,1.174-8.789-0.199l-6.524-3.241
			c-3.479-1.729-7.511-1.82-11.063-0.251l-0.122,0.054l-4.871-11.031l6.763-2.985c3.224-1.424,6.82-1.538,10.127-0.324l13.12,4.818
			c1.193,0.438,1.83,1.773,1.418,2.977c-0.419,1.226-1.759,1.886-2.986,1.471l-10.145-3.432c-0.701-0.237-1.461,0.139-1.698,0.84
			c-0.237,0.7,0.139,1.461,0.839,1.698l10.146,3.432c0.532,0.18,1.074,0.266,1.607,0.266c2.095,0,4.059-1.319,4.772-3.407
			c0.88-2.569-0.479-5.423-3.029-6.359l-13.12-4.817c-3.962-1.455-8.271-1.317-12.133,0.388l-6.805,3.004
			c-0.89-1.358-2.662-1.917-4.196-1.24l-8.685,3.835c-0.484,0.214-0.797,0.692-0.799,1.222L3.766,78.24
			c-0.001,0.466,0.24,0.899,0.636,1.144c0.215,0.133,0.459,0.2,0.704,0.2c0.207,0,0.414-0.048,0.604-0.145l16.99-8.582
			c1.532-0.698,2.299-2.408,1.857-3.989l0.154-0.067c2.822-1.247,6.026-1.174,8.789,0.199l6.524,3.241
			c3.478,1.728,7.511,1.819,11.063,0.25l17.822-7.869c2.639-1.165,3.838-4.259,2.673-6.897
			C70.418,53.087,67.324,51.888,64.686,53.053z M21.582,68.422c-0.021,0.01-0.042,0.02-0.063,0.03L6.451,76.063l0.017-5.828
			l3.917-1.923c0.664-0.326,0.938-1.13,0.612-1.793c-0.326-0.665-1.129-0.938-1.793-0.612l-2.727,1.339l0.033-11.612l7.889-3.483
			c0.356-0.156,0.772,0.005,0.929,0.36l6.269,14.198c0,0.001,0,0.002,0,0.002l0.346,0.782
			C22.099,67.849,21.938,68.265,21.582,68.422z" class="yHjEqNab_0"></path>
	</g>
	<g>
		<path fill="none" stroke="#333333" stroke-miterlimit="10" d="M72.617,17.89L51.758,4.715c-0.276-0.175-0.629-0.175-0.905,0
			L29.993,17.89c-0.396,0.25-0.514,0.773-0.264,1.169l2.026,3.208c0.12,0.19,0.311,0.325,0.53,0.375
			c0.219,0.049,0.449,0.01,0.64-0.11l0.301-0.19v17.555c0,0.468,0.379,0.848,0.848,0.848h34.464c0.469,0,0.848-0.38,0.848-0.848
			V22.341l0.301,0.19c0.141,0.089,0.298,0.131,0.453,0.131c0.28,0,0.556-0.14,0.717-0.396l2.026-3.207
			c0.086-0.136,0.132-0.293,0.132-0.453C73.013,18.315,72.863,18.045,72.617,17.89z M67.689,39.047H52.153h-1.696H38.313v-3.479
			c0-0.469-0.379-0.848-0.848-0.848s-0.848,0.379-0.848,0.848v3.479h-1.696V21.27l16.383-10.348l12.992,8.206v4.066
			c0,0.469,0.381,0.848,0.849,0.848s0.848-0.379,0.848-0.848v-2.996l1.696,1.071V39.047z M69.875,20.645L51.758,9.202
			c-0.139-0.088-0.295-0.132-0.453-0.132c-0.156,0-0.314,0.044-0.453,0.132L32.736,20.645l-1.12-1.774L51.305,6.435L70.996,18.87
			L69.875,20.645z" class="yHjEqNab_1"></path>
	</g>
	<path fill="#333333" stroke="#333333" stroke-miterlimit="10" d="M37.465,32.264c-0.468,0-0.848,0.379-0.848,0.848v0.02
		c0,0.469,0.38,0.849,0.848,0.849s0.848-0.38,0.848-0.849v-0.02C38.313,32.643,37.934,32.264,37.465,32.264z" class="yHjEqNab_2"></path>
</g>
<path fill="#333333" d="M65.146,24.782c-0.469,0-0.849,0.38-0.849,0.849v0.02c0,0.469,0.38,0.848,0.849,0.848
	c0.468,0,0.848-0.379,0.848-0.848v-0.02C65.994,25.162,65.614,24.782,65.146,24.782z" class="yHjEqNab_3"></path>
<style>.yHjEqNab_0{stroke-dasharray:409 411;stroke-dashoffset:410;animation:yHjEqNab_draw 3000ms ease-in-out 0ms forwards;}.yHjEqNab_1{stroke-dasharray:354 356;stroke-dashoffset:355;animation:yHjEqNab_draw 3000ms ease-in-out 0ms forwards;}.yHjEqNab_2{stroke-dasharray:6 8;stroke-dashoffset:7;animation:yHjEqNab_draw 3000ms ease-in-out 0ms forwards;}.yHjEqNab_3{stroke-dasharray:6 8;stroke-dashoffset:7;animation:yHjEqNab_draw 3000ms ease-in-out 0ms forwards;}@keyframes yHjEqNab_draw{100%{stroke-dashoffset:0;}}@keyframes yHjEqNab_fade{0%{stroke-opacity:1;}94.44444444444444%{stroke-opacity:1;}100%{stroke-opacity:0;}}</style></svg>
