<?xml version="1.0" encoding="utf-8"?>
<!-- Generator: Adobe Illustrator 16.0.0, SVG Export Plug-In . SVG Version: 6.00 Build 0)  -->
<!DOCTYPE svg PUBLIC "-//W3C//DTD SVG 1.1//EN" "http://www.w3.org/Graphics/SVG/1.1/DTD/svg11.dtd">
<svg version="1.1" id="Capa_1" xmlns="http://www.w3.org/2000/svg" xmlns:xlink="http://www.w3.org/1999/xlink" x="0px" y="0px"
	 width="37.188px" height="37.175px" viewBox="0 0 37.188 37.175" enable-background="new 0 0 37.188 37.175" xml:space="preserve">
<g id="XMLID_1199_">
	<path id="XMLID_1202_" fill="#FFFFFF" d="M37.188,18.594C37.188,8.325,28.864,0,18.594,0C8.325,0,0,8.325,0,18.594
		c0,8.599,5.837,15.833,13.764,17.96l0.019-14.557h-3.287c-0.427,0-0.774-0.346-0.775-0.772l-0.016-4.079
		c-0.002-0.43,0.346-0.779,0.775-0.779h3.282v-3.94c0-4.574,2.793-7.064,6.873-7.064h3.348c0.428,0,0.775,0.348,0.775,0.775v3.439
		c0,0.428-0.347,0.775-0.775,0.775l-2.055,0.001c-2.219,0-2.648,1.055-2.648,2.603v3.412h4.876c0.465,0,0.825,0.405,0.771,0.866
		l-0.483,4.079c-0.046,0.391-0.378,0.685-0.771,0.685h-4.371l-0.02,15.178C29.233,36.813,37.188,28.634,37.188,18.594z"/>
</g>
</svg>
