<?xml version="1.0" encoding="utf-8"?>
<!-- Generator: Adobe Illustrator 16.0.0, SVG Export Plug-In . SVG Version: 6.00 Build 0)  -->
<!DOCTYPE svg PUBLIC "-//W3C//DTD SVG 1.1//EN" "http://www.w3.org/Graphics/SVG/1.1/DTD/svg11.dtd">
<svg version="1.1" id="Capa_1" xmlns="http://www.w3.org/2000/svg" xmlns:xlink="http://www.w3.org/1999/xlink" x="0px" y="0px"
	 width="37.631px" height="38.073px" viewBox="0 0 37.631 38.073" enable-background="new 0 0 37.631 38.073" xml:space="preserve">
<g id="XMLID_1197_">
	<path id="XMLID_1201_" fill="#FFFFFF" d="M19.038,0C8.523,0,0,8.522,0,19.037c0,10.514,8.523,19.036,19.038,19.036
		c10.514,0,19.037-8.522,19.037-19.036C38.075,8.522,29.551,0,19.038,0z M31.643,12.182c-0.574,0.86-1.273,1.626-2.074,2.277
		c-0.211,0.172-0.332,0.424-0.332,0.691v0.079c0,1.668-0.324,3.414-0.938,5.052c-0.643,1.717-1.57,3.27-2.756,4.615
		c-1.271,1.443-2.787,2.578-4.5,3.372c-1.869,0.865-3.938,1.305-6.151,1.305c-2.527,0-5.016-0.671-7.197-1.94
		c-0.158-0.093-0.244-0.279-0.198-0.457c0.048-0.18,0.205-0.302,0.391-0.302l0.604,0.001c1.936,0,3.795-0.565,5.393-1.638
		c-1.924-0.313-3.533-1.689-4.131-3.558c-0.063-0.197,0.107-0.39,0.311-0.352c0.291,0.056,0.588,0.084,0.88,0.084
		c0.037,0,0.074-0.001,0.111-0.001c-1.844-0.842-3.074-2.713-3.048-4.814c0.002-0.206,0.225-0.335,0.405-0.235
		c0.373,0.208,0.774,0.362,1.19,0.461c-0.988-0.972-1.557-2.305-1.557-3.72c0-0.923,0.244-1.83,0.707-2.623
		c0.096-0.165,0.327-0.184,0.447-0.035c2.361,2.896,5.701,4.68,9.405,5.024c0.008,0.001,0.014,0.001,0.02,0.001
		c0.055,0,0.107-0.023,0.145-0.065c0.02-0.023,0.055-0.074,0.047-0.146c-0.072-0.629-0.031-1.275,0.123-1.922
		c0.41-1.722,1.715-3.118,3.408-3.643C22.893,9.524,23.45,9.438,24,9.438c1.273,0,2.5,0.463,3.453,1.303
		c0.125,0.11,0.283,0.171,0.447,0.171c0.053,0,0.107-0.007,0.158-0.021c0.896-0.227,1.756-0.581,2.553-1.054
		c0.215-0.128,0.475,0.079,0.398,0.317c-0.268,0.838-0.742,1.588-1.373,2.188c0.572-0.137,1.131-0.325,1.668-0.563
		C31.555,11.67,31.795,11.954,31.643,12.182z"/>
</g>
</svg>
