<?xml version="1.0" encoding="utf-8"?>
<!-- Generator: Adobe Illustrator 16.0.0, SVG Export Plug-In . SVG Version: 6.00 Build 0)  -->
<!DOCTYPE svg PUBLIC "-//W3C//DTD SVG 1.1//EN" "http://www.w3.org/Graphics/SVG/1.1/DTD/svg11.dtd">
<svg version="1.1" id="Capa_1" xmlns="http://www.w3.org/2000/svg" xmlns:xlink="http://www.w3.org/1999/xlink" x="0px" y="0px"
	 width="38.295px" height="38.073px" viewBox="0 0 38.295 38.073" enable-background="new 0 0 38.295 38.073" xml:space="preserve">
<g id="XMLID_1194_">
	<g id="XMLID_1200_">
		<path id="XMLID_1208_" fill="#FFFFFF" d="M26.377,9.713c-0.412,0-0.818,0.167-1.111,0.461c-0.293,0.291-0.461,0.697-0.461,1.112
			c0,0.414,0.168,0.82,0.461,1.113c0.293,0.292,0.699,0.46,1.111,0.46c0.416,0,0.82-0.168,1.113-0.46
			c0.293-0.293,0.461-0.7,0.461-1.113c0-0.415-0.168-0.821-0.461-1.112C27.199,9.88,26.793,9.713,26.377,9.713z"/>
		<path id="XMLID_1205_" fill="#FFFFFF" d="M18.557,13.377c-3.436,0-6.23,2.795-6.23,6.231c0,3.436,2.795,6.231,6.23,6.231
			s6.23-2.796,6.23-6.231C24.787,16.172,21.992,13.377,18.557,13.377z M18.557,23.693c-2.252,0-4.086-1.832-4.086-4.085
			s1.834-4.086,4.086-4.086c2.254,0,4.086,1.833,4.086,4.086S20.809,23.693,18.557,23.693z"/>
		<path id="XMLID_1203_" fill="#FFFFFF" d="M19.035,0.426C8.521,0.426,0,8.949,0,19.463C0,29.978,8.521,38.5,19.035,38.5
			c10.516,0,19.037-8.522,19.037-19.037C38.072,8.949,29.551,0.426,19.035,0.426z M30.936,23.32c0,3.686-2.988,6.674-6.674,6.674
			H13.609c-3.686,0-6.674-2.988-6.674-6.674V12.668c0-3.686,2.988-6.674,6.674-6.674h10.652c3.686,0,6.674,2.988,6.674,6.674V23.32z
			"/>
	</g>
</g>
</svg>
