<!--?xml version="1.0" encoding="utf-8"?-->
<!-- Generator: Adobe Illustrator 16.0.0, SVG Export Plug-In . SVG Version: 6.00 Build 0)  -->

<svg version="1.1" id="Capa_1" xmlns="http://www.w3.org/2000/svg" xmlns:xlink="http://www.w3.org/1999/xlink" x="0px" y="0px" width="80.5px" height="82px" viewBox="0 0 80.5 82" enable-background="new 0 0 80.5 82" xml:space="preserve" style="">
<g id="XMLID_2154_">
	<g id="XMLID_2158_">
		<g id="XMLID_2159_">
			<path id="XMLID_2176_" fill="none" stroke="#333333" stroke-miterlimit="10" d="M36.357,11.745
				c-2.844,0.928-4.754,3.563-4.754,6.558c0,0.774,0.627,1.401,1.401,1.401s1.401-0.627,1.401-1.401c0-1.778,1.133-3.343,2.82-3.894
				c0.736-0.24,1.139-1.03,0.898-1.767C37.885,11.907,37.094,11.504,36.357,11.745z" class="lMIWGXDA_0"></path>
			<path id="XMLID_2174_" fill="none" stroke="#333333" stroke-miterlimit="10" d="M41.738,12.21
				c-0.676-0.379-1.529-0.138-1.908,0.537c-0.378,0.676-0.137,1.529,0.538,1.908c0.005,0.003,0.024,0.013,0.029,0.016
				c0.213,0.116,0.442,0.171,0.669,0.171c0.496,0,0.976-0.264,1.23-0.729C42.668,13.433,42.416,12.582,41.738,12.21z" class="lMIWGXDA_1"></path>
			<path id="XMLID_2168_" fill="none" stroke="#333333" stroke-miterlimit="10" d="M19.62,9.02l4.144,2.393
				c0.221,0.127,0.461,0.188,0.699,0.188c0.484,0,0.955-0.251,1.215-0.701c0.387-0.67,0.158-1.527-0.513-1.914l-4.144-2.393
				c-0.67-0.387-1.527-0.157-1.914,0.513C18.721,7.776,18.95,8.632,19.62,9.02z" class="lMIWGXDA_2"></path>
			<path id="XMLID_2165_" fill="none" stroke="#333333" stroke-miterlimit="10" d="M59.645,28.892l-5.319-3.072
				c-0.671-0.387-1.527-0.157-1.914,0.514c-0.388,0.67-0.157,1.527,0.513,1.914l5.32,3.071c0.221,0.127,0.461,0.188,0.699,0.188
				c0.484,0,0.955-0.251,1.215-0.7C60.545,30.135,60.314,29.279,59.645,28.892z" class="lMIWGXDA_3"></path>
			<path id="XMLID_2164_" fill="none" stroke="#333333" stroke-miterlimit="10" d="M22.44,18.302c0-0.773-0.628-1.401-1.401-1.401
				h-9.518c-0.773,0-1.401,0.628-1.401,1.401c0,0.774,0.628,1.401,1.401,1.401h9.518C21.813,19.704,22.44,19.077,22.44,18.302z" class="lMIWGXDA_4"></path>
			<path id="XMLID_2163_" fill="none" stroke="#333333" stroke-miterlimit="10" d="M65.48,16.901h-0.036
				c-0.774,0-1.401,0.628-1.401,1.401c0,0.774,0.627,1.401,1.401,1.401h0.036c0.773,0,1.4-0.627,1.4-1.401
				C66.881,17.529,66.254,16.901,65.48,16.901z" class="lMIWGXDA_5"></path>
			<path id="XMLID_2162_" fill="none" stroke="#333333" stroke-miterlimit="10" d="M61.313,16.901h-9.996
				c-0.7-6.452-6.18-11.491-12.815-11.491c-7.109,0-12.894,5.783-12.894,12.893c0,1.796,0.381,3.565,1.097,5.192l-6.942,4.009
				c-0.67,0.387-0.9,1.244-0.513,1.914c0.26,0.449,0.73,0.701,1.215,0.701c0.237,0,0.479-0.061,0.699-0.188l6.94-4.007
				c0.121,0.165,0.244,0.327,0.373,0.487c0.531,0.654,1.012,1.221,1.447,1.729c-5.761,2.496-10.094,7.507-12.041,14.023
				c-1.238,4.142,0.032,10.761,0.872,15.14c0.068,0.355,0.132,0.688,0.19,0.996c0,0.002,0,0.006,0.001,0.008
				c0.073,0.387,0.136,0.736,0.185,1.035c1.564,9.502,2.932,10.75,7.43,13.611c0.622,0.396,1.326,0.844,2.096,1.365l0.086,0.055
				c3.201,1.848,6.483,2.785,9.754,2.787c0.002,0,0.002,0,0.004,0c3.272,0,6.557-0.939,9.76-2.789l0.086-0.053
				c0.77-0.523,1.474-0.971,2.094-1.365c4.5-2.861,5.866-4.109,7.431-13.611c0.089-0.539,0.222-1.234,0.376-2.039
				c0.84-4.381,2.109-10.998,0.872-15.14c-1.946-6.517-6.28-11.527-12.041-14.022c0.437-0.509,0.917-1.074,1.447-1.729
				c1.556-1.92,2.521-4.261,2.789-6.707h10c0.773,0,1.401-0.627,1.401-1.401C62.715,17.529,62.088,16.901,61.313,16.901z
				 M48.936,70.588c-0.625,0.398-1.334,0.85-2.121,1.381c-5.517,3.17-11.109,3.17-16.627,0.002
				c-0.787-0.533-1.496-0.984-2.121-1.381c-3.748-2.385-4.699-2.992-6.08-11.168h2.019c0.653,3.248,3.526,5.703,6.964,5.703
				s6.311-2.455,6.963-5.703h1.139c0.652,3.248,3.525,5.703,6.963,5.703s6.311-2.455,6.963-5.703h2.02
				C53.635,67.598,52.684,68.205,48.936,70.588z M26.668,58.021c0-2.371,1.93-4.301,4.301-4.301s4.3,1.93,4.3,4.301
				s-1.929,4.301-4.3,4.301S26.668,60.393,26.668,58.021z M50.334,58.025c-0.003,2.369-1.931,4.297-4.301,4.297
				c-2.371,0-4.301-1.93-4.301-4.301s1.93-4.301,4.301-4.301c2.369,0,4.298,1.928,4.301,4.297c0,0.002,0,0.002,0,0.004
				C50.333,58.021,50.334,58.023,50.334,58.025z M55.523,56.619h-2.527c-0.652-3.246-3.525-5.701-6.963-5.701
				s-6.311,2.455-6.963,5.701h-1.139c-0.225-1.123-0.718-2.15-1.406-3.016c4.604-2.131,8.444-4.445,11.455-6.9
				c1.391,1.715,4.25,4.746,8.18,6.408C55.949,54.389,55.721,55.59,55.523,56.619z M56.433,42.965
				c0.554,1.855,0.462,4.554,0.144,7.255c-4.379-2.141-7.173-6.279-7.203-6.324c-0.225-0.34-0.586-0.564-0.989-0.617
				c-0.403-0.051-0.81,0.074-1.113,0.346c-3.202,2.861-7.642,5.555-13.196,8.01c-0.938-0.459-1.992-0.717-3.105-0.717
				c-3.438,0-6.312,2.455-6.964,5.701h-2.527c-0.743-3.877-1.937-10.215-0.909-13.654c1.789-5.991,5.854-10.517,11.226-12.56
				c0.657,0.916,1.005,1.726,1.137,2.948c-0.621,0.145-1.085,0.699-1.085,1.364v5.198c0,1.897,1.545,3.441,3.441,3.441h6.427
				c1.897,0,3.441-1.543,3.441-3.441v-5.198c0-0.665-0.464-1.221-1.085-1.364c0.133-1.223,0.48-2.032,1.137-2.948
				C50.58,32.449,54.644,36.974,56.433,42.965z M34.648,39.917V36.12h7.704v3.797c0,0.346-0.292,0.639-0.639,0.639h-6.427
				C34.941,40.555,34.648,40.262,34.648,39.917z M46.347,24.646c-0.632,0.779-1.199,1.439-1.7,2.021
				c-1.943,2.258-3.122,3.628-3.387,6.649h-5.519c-0.265-3.021-1.443-4.392-3.386-6.648c-0.501-0.583-1.069-1.243-1.701-2.022
				c-0.332-0.411-0.629-0.844-0.89-1.292c-0.001-0.002-0.002-0.004-0.003-0.006c-0.002-0.003-0.004-0.006-0.006-0.01
				c-0.883-1.521-1.346-3.235-1.346-5.036c0-5.563,4.527-10.09,10.091-10.09s10.089,4.526,10.089,10.09
				C48.59,20.64,47.814,22.833,46.347,24.646z" class="lMIWGXDA_6"></path>
			<path id="XMLID_2161_" fill="none" stroke="#333333" stroke-miterlimit="10" d="M17.943,30.175
				c-0.387-0.671-1.242-0.902-1.914-0.517l-0.059,0.034c-0.672,0.386-0.902,1.242-0.518,1.913c0.26,0.451,0.73,0.703,1.217,0.703
				c0.236,0,0.477-0.06,0.697-0.187l0.059-0.034C18.097,31.703,18.328,30.846,17.943,30.175z" class="lMIWGXDA_7"></path>
			<path id="XMLID_2160_" fill="none" stroke="#333333" stroke-miterlimit="10" d="M53.626,10.971c0.237,0,0.479-0.061,0.699-0.188
				l4.779-2.759c0.67-0.387,0.899-1.244,0.513-1.914c-0.387-0.671-1.244-0.9-1.914-0.514l-4.779,2.76
				c-0.67,0.387-0.9,1.243-0.513,1.914C52.67,10.72,53.142,10.971,53.626,10.971z" class="lMIWGXDA_8"></path>
		</g>
	</g>
</g>
<style>.lMIWGXDA_0{stroke-dasharray:23 25;stroke-dashoffset:24;animation:lMIWGXDA_draw 3500ms ease-in-out 0ms forwards;}.lMIWGXDA_1{stroke-dasharray:9 11;stroke-dashoffset:10;animation:lMIWGXDA_draw 3500ms ease-in-out 0ms forwards;}.lMIWGXDA_2{stroke-dasharray:19 21;stroke-dashoffset:20;animation:lMIWGXDA_draw 3500ms ease-in-out 0ms forwards;}.lMIWGXDA_3{stroke-dasharray:22 24;stroke-dashoffset:23;animation:lMIWGXDA_draw 3500ms ease-in-out 0ms forwards;}.lMIWGXDA_4{stroke-dasharray:28 30;stroke-dashoffset:29;animation:lMIWGXDA_draw 3500ms ease-in-out 0ms forwards;}.lMIWGXDA_5{stroke-dasharray:9 11;stroke-dashoffset:10;animation:lMIWGXDA_draw 3500ms ease-in-out 0ms forwards;}.lMIWGXDA_6{stroke-dasharray:667 669;stroke-dashoffset:668;animation:lMIWGXDA_draw 3500ms ease-in-out 0ms forwards;}.lMIWGXDA_7{stroke-dasharray:9 11;stroke-dashoffset:10;animation:lMIWGXDA_draw 3500ms ease-in-out 0ms forwards;}.lMIWGXDA_8{stroke-dasharray:20 22;stroke-dashoffset:21;animation:lMIWGXDA_draw 3500ms ease-in-out 0ms forwards;}@keyframes lMIWGXDA_draw{100%{stroke-dashoffset:0;}}@keyframes lMIWGXDA_fade{0%{stroke-opacity:1;}94.8051948051948%{stroke-opacity:1;}100%{stroke-opacity:0;}}</style></svg>
