<?xml version="1.0" encoding="utf-8"?>
<!-- Generator: Adobe Illustrator 16.0.0, SVG Export Plug-In . SVG Version: 6.00 Build 0)  -->
<!DOCTYPE svg PUBLIC "-//W3C//DTD SVG 1.1//EN" "http://www.w3.org/Graphics/SVG/1.1/DTD/svg11.dtd">
<svg version="1.1" id="Capa_1" xmlns="http://www.w3.org/2000/svg" xmlns:xlink="http://www.w3.org/1999/xlink" x="0px" y="0px"
	 width="80.5px" height="82px" viewBox="0 0 80.5 82" enable-background="new 0 0 80.5 82" xml:space="preserve">
<g id="XMLID_2154_">
	<g id="XMLID_2158_">
		<g id="XMLID_2159_">
			<path id="XMLID_2176_" fill="#666666" d="M36.357,11.745c-2.844,0.928-4.754,3.563-4.754,6.558c0,0.774,0.627,1.401,1.401,1.401
				s1.401-0.627,1.401-1.401c0-1.778,1.133-3.343,2.82-3.894c0.736-0.24,1.139-1.03,0.898-1.767
				C37.885,11.907,37.094,11.504,36.357,11.745z"/>
			<path id="XMLID_2174_" fill="#666666" d="M41.738,12.21c-0.676-0.379-1.529-0.138-1.908,0.537
				c-0.378,0.676-0.137,1.529,0.538,1.908c0.005,0.003,0.024,0.013,0.029,0.016c0.213,0.116,0.442,0.171,0.669,0.171
				c0.496,0,0.976-0.264,1.229-0.729C42.668,13.433,42.416,12.582,41.738,12.21z"/>
			<path id="XMLID_2168_" fill="#666666" d="M19.62,9.02l4.144,2.393c0.221,0.127,0.461,0.188,0.699,0.188
				c0.484,0,0.955-0.251,1.215-0.701c0.387-0.67,0.158-1.527-0.513-1.914l-4.144-2.393c-0.67-0.387-1.527-0.157-1.914,0.513
				C18.721,7.776,18.95,8.632,19.62,9.02z"/>
			<path id="XMLID_2165_" fill="#666666" d="M59.645,28.892l-5.318-3.072c-0.672-0.387-1.527-0.157-1.914,0.514
				c-0.389,0.67-0.157,1.527,0.513,1.914l5.32,3.071c0.221,0.127,0.461,0.188,0.698,0.188c0.484,0,0.955-0.251,1.216-0.7
				C60.545,30.135,60.314,29.279,59.645,28.892z"/>
			<path id="XMLID_2164_" fill="#666666" d="M22.44,18.302c0-0.773-0.628-1.401-1.401-1.401h-9.518
				c-0.773,0-1.401,0.628-1.401,1.401c0,0.774,0.628,1.401,1.401,1.401h9.518C21.813,19.704,22.44,19.077,22.44,18.302z"/>
			<path id="XMLID_2163_" fill="#666666" d="M65.48,16.901h-0.037c-0.773,0-1.4,0.628-1.4,1.401c0,0.774,0.627,1.401,1.4,1.401
				h0.037c0.772,0,1.399-0.627,1.399-1.401C66.881,17.529,66.254,16.901,65.48,16.901z"/>
			<path id="XMLID_2162_" fill="#666666" d="M61.313,16.901h-9.996C50.617,10.449,45.137,5.41,38.502,5.41
				c-7.109,0-12.894,5.783-12.894,12.893c0,1.796,0.381,3.565,1.097,5.192l-6.942,4.009c-0.67,0.387-0.9,1.244-0.513,1.914
				c0.26,0.449,0.73,0.701,1.215,0.701c0.237,0,0.479-0.061,0.699-0.188l6.94-4.007c0.121,0.165,0.244,0.327,0.373,0.487
				c0.531,0.654,1.012,1.221,1.447,1.729c-5.761,2.496-10.094,7.507-12.041,14.023c-1.238,4.142,0.032,10.761,0.872,15.14
				c0.068,0.355,0.132,0.688,0.19,0.996c0,0.002,0,0.006,0.001,0.008c0.073,0.387,0.136,0.736,0.185,1.035
				c1.564,9.502,2.932,10.75,7.43,13.611c0.622,0.396,1.326,0.844,2.096,1.365l0.086,0.055c3.201,1.848,6.483,2.785,9.754,2.787
				c0.002,0,0.002,0,0.004,0c3.272,0,6.558-0.939,9.761-2.789l0.086-0.053c0.77-0.523,1.473-0.971,2.094-1.365
				c4.5-2.861,5.865-4.109,7.431-13.611c0.089-0.539,0.222-1.234,0.376-2.039c0.84-4.381,2.109-10.998,0.872-15.14
				c-1.946-6.517-6.28-11.527-12.041-14.022c0.437-0.509,0.917-1.074,1.446-1.729c1.557-1.92,2.521-4.261,2.789-6.707h10
				c0.773,0,1.401-0.627,1.401-1.401C62.715,17.529,62.088,16.901,61.313,16.901z M48.936,70.588
				c-0.625,0.398-1.334,0.85-2.121,1.381c-5.517,3.17-11.108,3.17-16.626,0.002c-0.787-0.533-1.496-0.984-2.121-1.381
				c-3.748-2.385-4.699-2.992-6.08-11.168h2.019c0.653,3.248,3.526,5.703,6.964,5.703s6.311-2.455,6.963-5.703h1.139
				c0.652,3.248,3.526,5.703,6.963,5.703s6.311-2.455,6.963-5.703h2.02C53.635,67.598,52.684,68.205,48.936,70.588z M26.668,58.021
				c0-2.371,1.93-4.301,4.301-4.301c2.371,0,4.3,1.93,4.3,4.301s-1.929,4.301-4.3,4.301C28.598,62.322,26.668,60.393,26.668,58.021z
				 M50.334,58.025c-0.003,2.369-1.932,4.297-4.301,4.297c-2.371,0-4.301-1.93-4.301-4.301s1.93-4.301,4.301-4.301
				c2.369,0,4.298,1.928,4.301,4.297c0,0.002,0,0.002,0,0.004C50.333,58.021,50.334,58.023,50.334,58.025z M55.523,56.619h-2.527
				c-0.652-3.246-3.525-5.701-6.963-5.701s-6.311,2.455-6.963,5.701h-1.139c-0.225-1.123-0.718-2.15-1.406-3.016
				c4.604-2.131,8.444-4.445,11.456-6.9c1.391,1.715,4.25,4.746,8.18,6.408C55.949,54.389,55.721,55.59,55.523,56.619z
				 M56.434,42.965c0.553,1.855,0.461,4.555,0.144,7.256c-4.379-2.142-7.173-6.279-7.203-6.324c-0.226-0.34-0.586-0.564-0.989-0.617
				c-0.402-0.051-0.81,0.074-1.113,0.346c-3.201,2.861-7.642,5.555-13.195,8.01c-0.938-0.459-1.992-0.717-3.105-0.717
				c-3.438,0-6.312,2.455-6.964,5.701H21.48c-0.743-3.877-1.937-10.215-0.909-13.654c1.789-5.991,5.854-10.517,11.226-12.56
				c0.657,0.916,1.005,1.726,1.137,2.948c-0.621,0.145-1.085,0.699-1.085,1.364v5.198c0,1.897,1.545,3.44,3.441,3.44h6.427
				c1.896,0,3.441-1.543,3.441-3.44v-5.198c0-0.665-0.465-1.221-1.085-1.364c0.133-1.223,0.479-2.032,1.137-2.948
				C50.58,32.449,54.645,36.974,56.434,42.965z M34.648,39.917V36.12h7.704v3.797c0,0.346-0.291,0.639-0.639,0.639h-6.427
				C34.941,40.555,34.648,40.262,34.648,39.917z M46.348,24.646c-0.633,0.779-1.199,1.439-1.701,2.021
				c-1.942,2.258-3.121,3.628-3.387,6.649h-5.519c-0.265-3.021-1.443-4.392-3.386-6.648c-0.501-0.583-1.069-1.243-1.701-2.022
				c-0.332-0.411-0.629-0.844-0.89-1.292c-0.001-0.002-0.002-0.004-0.003-0.006c-0.002-0.003-0.004-0.006-0.006-0.01
				c-0.883-1.521-1.346-3.235-1.346-5.036c0-5.563,4.527-10.09,10.091-10.09c5.564,0,10.089,4.526,10.089,10.09
				C48.59,20.64,47.814,22.833,46.348,24.646z"/>
			<path id="XMLID_2161_" fill="#666666" d="M17.943,30.175c-0.387-0.671-1.242-0.902-1.914-0.517l-0.059,0.034
				c-0.672,0.386-0.902,1.242-0.518,1.913c0.26,0.451,0.73,0.703,1.217,0.703c0.236,0,0.477-0.06,0.697-0.187l0.059-0.034
				C18.097,31.703,18.328,30.846,17.943,30.175z"/>
			<path id="XMLID_2160_" fill="#666666" d="M53.626,10.971c0.237,0,0.479-0.061,0.699-0.188l4.778-2.759
				c0.67-0.387,0.899-1.244,0.514-1.914c-0.387-0.671-1.244-0.9-1.914-0.514l-4.779,2.76c-0.67,0.387-0.9,1.243-0.513,1.914
				C52.67,10.72,53.143,10.971,53.626,10.971z"/>
		</g>
	</g>
</g>
</svg>
